<svg width="88" height="17" viewBox="0 0 88 17" fill="none" xmlns="http://www.w3.org/2000/svg">
<path d="M12.078 0.616C11.682 0.676 11.388 0.778 11.196 0.922C11.016 1.066 10.89 1.294 10.818 1.606C10.758 1.918 10.728 2.38 10.728 2.992V7.762C10.728 9.478 10.482 10.75 9.99 11.578C9.666 12.106 9.198 12.52 8.586 12.82C7.974 13.108 7.224 13.252 6.336 13.252C4.944 13.252 3.864 12.952 3.096 12.352C2.544 11.908 2.172 11.35 1.98 10.678C1.788 9.994 1.692 9.04 1.692 7.816V2.164C1.692 1.708 1.656 1.378 1.584 1.174C1.524 0.97 1.398 0.832 1.206 0.76C1.026 0.687999 0.738 0.639999 0.342 0.616V0.256C0.954 0.291999 1.89 0.309999 3.15 0.309999C4.398 0.309999 5.352 0.291999 6.012 0.256V0.616C5.58 0.639999 5.262 0.687999 5.058 0.76C4.866 0.832 4.734 0.97 4.662 1.174C4.59 1.378 4.554 1.708 4.554 2.164V8.95C4.554 10.21 4.734 11.14 5.094 11.74C5.466 12.328 6.114 12.622 7.038 12.622C8.238 12.622 9.084 12.22 9.576 11.416C10.068 10.6 10.314 9.448 10.314 7.96V3.208C10.314 2.512 10.272 1.996 10.188 1.66C10.104 1.324 9.942 1.084 9.702 0.94C9.462 0.784 9.084 0.676 8.568 0.616V0.256C9.024 0.291999 9.672 0.309999 10.512 0.309999C11.184 0.309999 11.706 0.291999 12.078 0.256V0.616ZM32.6242 0.616C32.2282 0.676 31.9342 0.778 31.7422 0.922C31.5622 1.066 31.4362 1.294 31.3642 1.606C31.3042 1.918 31.2742 2.38 31.2742 2.992V13.036L30.8422 13.018L30.3562 13.036L22.5442 3.136V10.048C22.5442 10.756 22.5802 11.278 22.6522 11.614C22.7242 11.938 22.8802 12.178 23.1202 12.334C23.3602 12.478 23.7502 12.58 24.2902 12.64V13C23.8222 12.964 23.1742 12.946 22.3462 12.946C21.6862 12.946 21.1642 12.964 20.7802 13V12.64C21.1762 12.58 21.4642 12.478 21.6442 12.334C21.8362 12.19 21.9622 11.962 22.0222 11.65C22.0942 11.338 22.1302 10.876 22.1302 10.264V2.164C22.1302 1.708 22.0942 1.378 22.0222 1.174C21.9622 0.97 21.8362 0.832 21.6442 0.76C21.4642 0.687999 21.1762 0.639999 20.7802 0.616V0.256C21.1642 0.291999 21.6862 0.309999 22.3462 0.309999C22.9462 0.309999 23.4622 0.291999 23.8942 0.256L30.8602 8.842V3.208C30.8602 2.5 30.8242 1.984 30.7522 1.66C30.6802 1.324 30.5242 1.084 30.2842 0.94C30.0442 0.784 29.6542 0.676 29.1142 0.616V0.256C29.5822 0.291999 30.2302 0.309999 31.0582 0.309999C31.7302 0.309999 32.2522 0.291999 32.6242 0.256V0.616ZM47.0544 0.616C46.6464 0.639999 46.3524 0.687999 46.1724 0.76C45.9924 0.832 45.8664 0.97 45.7944 1.174C45.7344 1.378 45.7044 1.708 45.7044 2.164V11.092C45.7044 11.548 45.7344 11.878 45.7944 12.082C45.8664 12.286 45.9924 12.424 46.1724 12.496C46.3524 12.568 46.6464 12.616 47.0544 12.64V13C46.4064 12.964 45.5004 12.946 44.3364 12.946C43.0524 12.946 42.1044 12.964 41.4924 13V12.64C41.8884 12.616 42.1764 12.568 42.3564 12.496C42.5484 12.424 42.6744 12.286 42.7344 12.082C42.8064 11.878 42.8424 11.548 42.8424 11.092V2.164C42.8424 1.708 42.8064 1.378 42.7344 1.174C42.6744 0.97 42.5484 0.832 42.3564 0.76C42.1764 0.687999 41.8884 0.639999 41.4924 0.616V0.256C42.1044 0.291999 43.0524 0.309999 44.3364 0.309999C45.5004 0.309999 46.4064 0.291999 47.0544 0.256V0.616ZM69.3233 12.874C69.1193 14.23 68.7053 15.166 68.0813 15.682C67.8173 15.898 67.4813 16.066 67.0733 16.186C66.6773 16.318 66.2393 16.384 65.7593 16.384C65.1113 16.384 64.4693 16.282 63.8333 16.078C63.2093 15.874 62.4353 15.568 61.5113 15.16C61.2833 15.064 61.0313 14.956 60.7553 14.836C60.4913 14.728 60.1913 14.608 59.8553 14.476L59.4233 14.35C59.1953 14.47 58.9433 14.56 58.6673 14.62C58.4033 14.692 58.1513 14.728 57.9113 14.728C57.6593 14.728 57.4553 14.686 57.2993 14.602C57.1433 14.53 57.0653 14.416 57.0653 14.26C57.0653 13.936 57.3953 13.774 58.0553 13.774C58.4993 13.774 58.9553 13.858 59.4233 14.026C59.8313 13.906 60.2633 13.744 60.7193 13.54C60.8033 13.504 60.9293 13.45 61.0973 13.378C61.2653 13.318 61.4153 13.264 61.5473 13.216C60.4313 13.108 59.4533 12.784 58.6133 12.244C57.7853 11.692 57.1433 10.948 56.6873 10.012C56.2433 9.076 56.0213 7.984 56.0213 6.736C56.0213 5.416 56.2913 4.246 56.8313 3.226C57.3713 2.206 58.1213 1.414 59.0813 0.85C60.0533 0.285999 61.1573 0.00399888 62.3933 0.00399888C63.6653 0.00399888 64.7753 0.261999 65.7233 0.778C66.6833 1.294 67.4273 2.044 67.9553 3.028C68.4833 4 68.7473 5.164 68.7473 6.52C68.7473 7.792 68.4953 8.932 67.9913 9.94C67.4873 10.936 66.7793 11.722 65.8673 12.298C64.9553 12.874 63.9173 13.186 62.7533 13.234C62.4653 13.27 62.2073 13.324 61.9793 13.396C61.7513 13.468 61.4813 13.57 61.1693 13.702C60.7853 13.87 60.4133 14.008 60.0533 14.116L61.5113 14.242C63.0353 14.374 64.1333 14.44 64.8053 14.44C65.2493 14.44 65.6993 14.41 66.1553 14.35C66.8993 14.266 67.4873 14.104 67.9193 13.864C68.3513 13.636 68.7113 13.276 68.9993 12.784L69.3233 12.874ZM59.0093 6.664C59.0093 7.912 59.1593 9.01 59.4593 9.958C59.7713 10.906 60.1853 11.638 60.7013 12.154C61.2293 12.67 61.8113 12.928 62.4473 12.928C63.1073 12.928 63.6893 12.664 64.1933 12.136C64.6973 11.596 65.0813 10.846 65.3453 9.886C65.6213 8.926 65.7593 7.828 65.7593 6.592C65.7593 5.344 65.6033 4.246 65.2913 3.298C64.9913 2.35 64.5773 1.618 64.0493 1.102C63.5333 0.585999 62.9573 0.327999 62.3213 0.327999C61.6613 0.327999 61.0793 0.597999 60.5753 1.138C60.0713 1.666 59.6813 2.41 59.4053 3.37C59.1413 4.33 59.0093 5.428 59.0093 6.664ZM87.5962 10.264C87.5962 11.368 87.6382 12.28 87.7222 13C86.9062 12.964 85.5322 12.946 83.6002 12.946C80.9842 12.946 79.0282 12.964 77.7322 13V12.64C78.1282 12.616 78.4162 12.568 78.5962 12.496C78.7882 12.424 78.9142 12.286 78.9742 12.082C79.0462 11.878 79.0822 11.548 79.0822 11.092V2.164C79.0822 1.708 79.0462 1.378 78.9742 1.174C78.9142 0.97 78.7882 0.832 78.5962 0.76C78.4162 0.687999 78.1282 0.639999 77.7322 0.616V0.256C79.0282 0.291999 80.9842 0.309999 83.6002 0.309999C85.3642 0.309999 86.6182 0.291999 87.3622 0.256C87.2782 1.252 87.2362 2.14 87.2362 2.92C87.2362 3.448 87.2542 3.856 87.2902 4.144H86.8762C86.6962 2.86 86.3722 1.96 85.9042 1.444C85.4362 0.927999 84.7762 0.669999 83.9242 0.669999H83.1862C82.8142 0.669999 82.5442 0.699999 82.3762 0.76C82.2082 0.82 82.0942 0.94 82.0342 1.12C81.9742 1.288 81.9442 1.564 81.9442 1.948V6.412H82.5202C83.1562 6.412 83.6362 6.178 83.9602 5.71C84.2962 5.242 84.5302 4.684 84.6622 4.036H85.0762C85.0402 4.54 85.0222 5.104 85.0222 5.728V6.592C85.0222 7.204 85.0582 8.056 85.1302 9.148H84.7162C84.4642 7.564 83.7322 6.772 82.5202 6.772H81.9442V11.308C81.9442 11.692 81.9742 11.974 82.0342 12.154C82.0942 12.322 82.2082 12.436 82.3762 12.496C82.5442 12.556 82.8142 12.586 83.1862 12.586H84.0682C84.9202 12.586 85.6042 12.298 86.1202 11.722C86.6482 11.134 87.0202 10.144 87.2362 8.752H87.6502C87.6142 9.148 87.5962 9.652 87.5962 10.264Z" fill="black"/>
</svg>
